<svg viewBox="0 0 24 24" fill="none" xmlns="http://www.w3.org/2000/svg">
  <path d="M20.447 20.452h-3.554v-5.569c0-1.328-.475-2.236-1.986-2.236-1.081 0-1.722.731-2.004 1.438-.103.25-.129.599-.129.948v5.419h-3.554s.05-8.746 0-9.637h3.554v1.364c.429-.659 1.196-1.597 2.905-1.597 2.12 0 3.708 1.386 3.708 4.362v5.508zM5.337 9.432c-1.144 0-1.915-.759-1.915-1.71 0-.955.77-1.71 1.963-1.71 1.193 0 1.915.755 1.938 1.71 0 .951-.745 1.71-1.986 1.71zm1.581 11.02H3.757V9.815h3.161v10.637zM22.225 0H1.771C.792 0 0 .774 0 1.729v20.542C0 23.227.792 24 1.771 24h20.451C23.2 24 24 23.227 24 22.271V1.729C24 .774 23.2 0 22.225 0z" fill="currentColor"/>
</svg>
